# Blender v2.78 (sub 0) OBJ File: ''
# www.blender.org
mtllib rope.mtl
o Cylinder
v -0.137048 -0.147065 0.084267
v -0.135304 -0.149060 0.097335
v -0.184842 -0.007016 0.125634
v -0.186586 -0.005020 0.112567
v -0.118441 0.130372 0.137749
v -0.120185 0.132368 0.124682
v 0.025004 0.182624 0.126582
v 0.023260 0.184619 0.113515
v 0.161464 0.119132 0.098675
v 0.159720 0.121127 0.085608
v 0.211003 -0.022912 0.070376
v 0.209258 -0.020917 0.057309
v 0.144601 -0.160300 0.058261
v 0.142857 -0.158305 0.045194
v 0.001156 -0.212552 0.069428
v -0.000588 -0.210557 0.056361
v -0.161464 -0.119132 -0.098675
v -0.211003 0.022912 -0.070376
v -0.144601 0.160300 -0.058261
v -0.001156 0.212552 -0.069428
v 0.135304 0.149060 -0.097335
v 0.184842 0.007016 -0.125634
v 0.118441 -0.130372 -0.137749
v -0.025004 -0.182624 -0.126582
v -0.023260 -0.184619 -0.113515
v -0.159720 -0.121127 -0.085608
v -0.021516 -0.186614 -0.100447
v -0.157976 -0.123122 -0.072541
v -0.019772 -0.188610 -0.087380
v -0.156232 -0.125118 -0.059473
v -0.018028 -0.190605 -0.074313
v -0.154488 -0.127113 -0.046406
v -0.016284 -0.192600 -0.061245
v -0.152744 -0.129108 -0.033339
v -0.014540 -0.194595 -0.048178
v -0.151000 -0.131103 -0.020271
v -0.012796 -0.196590 -0.035111
v -0.149256 -0.133098 -0.007204
v -0.011052 -0.198585 -0.022043
v -0.147512 -0.135093 0.005863
v -0.009308 -0.200581 -0.008976
v -0.145768 -0.137089 0.018931
v -0.007564 -0.202576 0.004091
v -0.144024 -0.139084 0.031998
v -0.005820 -0.204571 0.017159
v -0.142280 -0.141079 0.045065
v -0.004076 -0.206566 0.030226
v -0.140536 -0.143074 0.058133
v -0.002332 -0.208561 0.043293
v -0.138792 -0.145069 0.071200
v 0.120185 -0.132368 -0.124682
v 0.121929 -0.134363 -0.111614
v 0.123673 -0.136358 -0.098547
v 0.125417 -0.138353 -0.085480
v 0.127161 -0.140348 -0.072412
v 0.128905 -0.142344 -0.059345
v 0.130649 -0.144339 -0.046278
v 0.132393 -0.146334 -0.033210
v 0.134137 -0.148329 -0.020143
v 0.135881 -0.150324 -0.007075
v 0.137625 -0.152319 0.005992
v 0.139369 -0.154315 0.019059
v 0.141113 -0.156310 0.032127
v 0.186586 0.005020 -0.112567
v 0.188330 0.003025 -0.099499
v 0.190074 0.001030 -0.086432
v 0.191818 -0.000965 -0.073365
v 0.193562 -0.002960 -0.060297
v 0.195306 -0.004955 -0.047230
v 0.197050 -0.006951 -0.034163
v 0.198794 -0.008946 -0.021095
v 0.200538 -0.010941 -0.008028
v 0.202282 -0.012936 0.005039
v 0.204026 -0.014931 0.018107
v 0.205770 -0.016926 0.031174
v 0.207514 -0.018922 0.044241
v 0.137048 0.147065 -0.084267
v 0.138792 0.145069 -0.071200
v 0.140536 0.143074 -0.058133
v 0.142280 0.141079 -0.045065
v 0.144024 0.139084 -0.031998
v 0.145768 0.137089 -0.018931
v 0.147512 0.135093 -0.005863
v 0.149256 0.133098 0.007204
v 0.151000 0.131103 0.020271
v 0.152744 0.129108 0.033339
v 0.154488 0.127113 0.046406
v 0.156232 0.125118 0.059473
v 0.157976 0.123122 0.072541
v 0.000588 0.210557 -0.056361
v 0.002332 0.208561 -0.043293
v 0.004076 0.206566 -0.030226
v 0.005820 0.204571 -0.017159
v 0.007564 0.202576 -0.004091
v 0.009308 0.200581 0.008976
v 0.011052 0.198585 0.022043
v 0.012796 0.196590 0.035111
v 0.014540 0.194595 0.048178
v 0.016284 0.192600 0.061245
v 0.018028 0.190605 0.074313
v 0.019772 0.188610 0.087380
v 0.021516 0.186614 0.100447
v -0.142857 0.158305 -0.045194
v -0.141113 0.156310 -0.032127
v -0.139369 0.154315 -0.019059
v -0.137625 0.152319 -0.005992
v -0.135881 0.150324 0.007075
v -0.134137 0.148329 0.020143
v -0.132393 0.146334 0.033210
v -0.130649 0.144339 0.046278
v -0.128905 0.142344 0.059345
v -0.127161 0.140348 0.072412
v -0.125417 0.138353 0.085480
v -0.123673 0.136358 0.098547
v -0.121929 0.134363 0.111614
v -0.209258 0.020917 -0.057309
v -0.207514 0.018922 -0.044241
v -0.205770 0.016926 -0.031174
v -0.204026 0.014931 -0.018107
v -0.202282 0.012936 -0.005039
v -0.200538 0.010941 0.008028
v -0.198794 0.008946 0.021095
v -0.197050 0.006951 0.034163
v -0.195306 0.004955 0.047230
v -0.193562 0.002960 0.060297
v -0.191818 0.000965 0.073365
v -0.190074 -0.001030 0.086432
v -0.188330 -0.003025 0.099499
vn -0.9371 -0.3414 0.0730
vn -0.8915 0.4148 0.1823
vn -0.3236 0.9279 0.1849
vn 0.4338 0.8975 0.0791
vn 0.9371 0.3414 -0.0730
vn 0.8915 -0.4148 -0.1823
vn 0.1308 -0.1496 0.9801
vn 0.3236 -0.9279 -0.1849
vn -0.4338 -0.8975 -0.0791
vn -0.1308 0.1496 -0.9801
usemtl Material.001
s 1
f 1//1 2//1 3//1 4//1
f 4//2 3//2 5//2 6//2
f 6//3 5//3 7//3 8//3
f 8//4 7//4 9//4 10//4
f 10//5 9//5 11//5 12//5
f 12//6 11//6 13//6 14//6
f 3//7 2//7 15//7 13//7 11//7 9//7 7//7 5//7
f 14//8 13//8 15//8 16//8
f 16//9 15//9 2//9 1//9
f 17//10 18//10 19//10 20//10 21//10 22//10 23//10 24//10
f 24//9 25//9 26//9 17//9
f 25//9 27//9 28//9 26//9
f 27//9 29//9 30//9 28//9
f 29//9 31//9 32//9 30//9
f 31//9 33//9 34//9 32//9
f 33//9 35//9 36//9 34//9
f 35//9 37//9 38//9 36//9
f 37//9 39//9 40//9 38//9
f 39//9 41//9 42//9 40//9
f 41//9 43//9 44//9 42//9
f 43//9 45//9 46//9 44//9
f 45//9 47//9 48//9 46//9
f 47//9 49//9 50//9 48//9
f 49//9 16//9 1//9 50//9
f 23//8 51//8 25//8 24//8
f 51//8 52//8 27//8 25//8
f 52//8 53//8 29//8 27//8
f 53//8 54//8 31//8 29//8
f 54//8 55//8 33//8 31//8
f 55//8 56//8 35//8 33//8
f 56//8 57//8 37//8 35//8
f 57//8 58//8 39//8 37//8
f 58//8 59//8 41//8 39//8
f 59//8 60//8 43//8 41//8
f 60//8 61//8 45//8 43//8
f 61//8 62//8 47//8 45//8
f 62//8 63//8 49//8 47//8
f 63//8 14//8 16//8 49//8
f 22//6 64//6 51//6 23//6
f 64//6 65//6 52//6 51//6
f 65//6 66//6 53//6 52//6
f 66//6 67//6 54//6 53//6
f 67//6 68//6 55//6 54//6
f 68//6 69//6 56//6 55//6
f 69//6 70//6 57//6 56//6
f 70//6 71//6 58//6 57//6
f 71//6 72//6 59//6 58//6
f 72//6 73//6 60//6 59//6
f 73//6 74//6 61//6 60//6
f 74//6 75//6 62//6 61//6
f 75//6 76//6 63//6 62//6
f 76//6 12//6 14//6 63//6
f 21//5 77//5 64//5 22//5
f 77//5 78//5 65//5 64//5
f 78//5 79//5 66//5 65//5
f 79//5 80//5 67//5 66//5
f 80//5 81//5 68//5 67//5
f 81//5 82//5 69//5 68//5
f 82//5 83//5 70//5 69//5
f 83//5 84//5 71//5 70//5
f 84//5 85//5 72//5 71//5
f 85//5 86//5 73//5 72//5
f 86//5 87//5 74//5 73//5
f 87//5 88//5 75//5 74//5
f 88//5 89//5 76//5 75//5
f 89//5 10//5 12//5 76//5
f 20//4 90//4 77//4 21//4
f 90//4 91//4 78//4 77//4
f 91//4 92//4 79//4 78//4
f 92//4 93//4 80//4 79//4
f 93//4 94//4 81//4 80//4
f 94//4 95//4 82//4 81//4
f 95//4 96//4 83//4 82//4
f 96//4 97//4 84//4 83//4
f 97//4 98//4 85//4 84//4
f 98//4 99//4 86//4 85//4
f 99//4 100//4 87//4 86//4
f 100//4 101//4 88//4 87//4
f 101//4 102//4 89//4 88//4
f 102//4 8//4 10//4 89//4
f 19//3 103//3 90//3 20//3
f 103//3 104//3 91//3 90//3
f 104//3 105//3 92//3 91//3
f 105//3 106//3 93//3 92//3
f 106//3 107//3 94//3 93//3
f 107//3 108//3 95//3 94//3
f 108//3 109//3 96//3 95//3
f 109//3 110//3 97//3 96//3
f 110//3 111//3 98//3 97//3
f 111//3 112//3 99//3 98//3
f 112//3 113//3 100//3 99//3
f 113//3 114//3 101//3 100//3
f 114//3 115//3 102//3 101//3
f 115//3 6//3 8//3 102//3
f 18//2 116//2 103//2 19//2
f 116//2 117//2 104//2 103//2
f 117//2 118//2 105//2 104//2
f 118//2 119//2 106//2 105//2
f 119//2 120//2 107//2 106//2
f 120//2 121//2 108//2 107//2
f 121//2 122//2 109//2 108//2
f 122//2 123//2 110//2 109//2
f 123//2 124//2 111//2 110//2
f 124//2 125//2 112//2 111//2
f 125//2 126//2 113//2 112//2
f 126//2 127//2 114//2 113//2
f 127//2 128//2 115//2 114//2
f 128//2 4//2 6//2 115//2
f 17//1 26//1 116//1 18//1
f 26//1 28//1 117//1 116//1
f 28//1 30//1 118//1 117//1
f 30//1 32//1 119//1 118//1
f 32//1 34//1 120//1 119//1
f 34//1 36//1 121//1 120//1
f 36//1 38//1 122//1 121//1
f 38//1 40//1 123//1 122//1
f 40//1 42//1 124//1 123//1
f 42//1 44//1 125//1 124//1
f 44//1 46//1 126//1 125//1
f 46//1 48//1 127//1 126//1
f 48//1 50//1 128//1 127//1
f 50//1 1//1 4//1 128//1
